<svg xmlns="http://www.w3.org/2000/svg" viewBox="0 0 24 22">
  <g id="Layer_2" data-name="Layer 2">
    <g id="Layer_5" data-name="Layer 5">
      <g>
        <path d="M0,11.2,6.8,21.8C16.1,23.6,14.7,8.9,24,10.7L17.2.2C7.9-1.6,9.3,13,0,11.2Z" style="fill: #afd7a6"/>
        <path d="M12.7,12.4a2,2,0,0,1-.8.8l.3.9a2.2,2.2,0,0,0,.9-.8l.4.6a2.1,2.1,0,0,1,.4-.6l-.5-.7a2.3,2.3,0,0,0,0-2.3c-.4-.6-.8-.6-1.4-.1s-.7.4-.9.2a1,1,0,0,1,.1-.9,2.1,2.1,0,0,1,.7-.7l-.3-.9a1.5,1.5,0,0,0-.7.7L10.5,8a2.5,2.5,0,0,1-.4.7,2.1,2.1,0,0,1,.4.6,2.4,2.4,0,0,0,.1,2.2c.4.6.9.5,1.5,0s.6-.4.7-.1S12.9,12,12.7,12.4Z" style="fill: #82cf8f"/>
        <path d="M16.5,7.1a.9.9,0,0,0,.3-1.4,1.1,1.1,0,0,0-1.5-.4,1.2,1.2,0,0,0-.2,1.5A1,1,0,0,0,16.5,7.1Z" style="fill: #82cf8f"/>
        <path d="M8.7,16.7a1.3,1.3,0,0,0,.2-1.6,1,1,0,0,0-1.4-.3.9.9,0,0,0-.3,1.4A1.2,1.2,0,0,0,8.7,16.7Z" style="fill: #82cf8f"/>
        <path d="M6.9,20a2,2,0,0,1,1.9.8h0c.1.1.1.2.2.2s.2.1.3,0c5.3-1.3,6-9.7,11.3-11,.1,0,.1-.1.1-.2a.3.3,0,0,0-.1-.2c-.3-.5-.1-1,.6-1h.3c.1,0,.1-.1,0-.1L17.6,2.2h-.5a2.2,2.2,0,0,1-1.9-.8h0L15,.9h-.3C9.4,2.2,8.7,10.7,3.4,12H3.3c0,.1,0,.2.1.2s0,1.2-.7,1.1H2.5c-.1.1-.1.1,0,.2l3.9,6.1.3.2ZM15,4.8c.7-.5,1.8,0,2.3.7a1.5,1.5,0,0,1-.5,2.1,1.4,1.4,0,0,1-2-.4C14.3,6.4,14.3,5.2,15,4.8ZM9.8,7.6c1.1-2,3.2-1.8,4.4.1a6.9,6.9,0,0,1,0,6.7c-1.1,1.9-3.2,1.7-4.4-.2A6.7,6.7,0,0,1,9.8,7.6ZM7.2,14.3a1.4,1.4,0,0,1,2,.5A1.8,1.8,0,0,1,9,17.2a1.9,1.9,0,0,1-2.3-.8A1.5,1.5,0,0,1,7.2,14.3Z" style="fill: #82cf8f"/>
      </g>
    </g>
  </g>
</svg>
