<svg id="Layer_1" data-name="Layer 1" xmlns="http://www.w3.org/2000/svg" xmlns:xlink="http://www.w3.org/1999/xlink" viewBox="0 0 150 36"><defs><style>.cls-1{fill:none;}.cls-2{clip-path:url(#clip-path);}.cls-3{fill:#878da0;}.cls-4{fill:#b7bbc6;}</style><clipPath id="clip-path"><rect class="cls-1" y="2.71" width="150" height="30.57"/></clipPath></defs><title>neutral-tasty-recipes</title><g id="Recipes-horizontal-greyscale-light"><g class="cls-2"><g class="cls-2"><path class="cls-3" d="M1.51,15.32C.88,15.25.35,15.19.35,14.5a1.87,1.87,0,0,1,2-1.88c0-.66.07-1.17.19-2.33.29-2.76,2-4.74,4.12-4.74,1.44,0,2.1.5,2.1,1.85,0,1-.37,1.73-2,5.06a22.71,22.71,0,0,0,2.7-.22,1.73,1.73,0,0,1,.6,1.32,1.94,1.94,0,0,1-1.82,2.1,12.32,12.32,0,0,1-2.3-.19,36.61,36.61,0,0,0-1.1,5.69c0,.75.19,1.1.85,1.1,1.29,0,3.46-1.51,5.59-4.52a1.2,1.2,0,0,1,1.26,1.06c0,1.86-4.81,7.48-8.42,7.48-2.42,0-4-1.26-4-4.15,0-.91.31-2.82,1.51-6.81"/><path class="cls-3" d="M11.75,25.75c-1.79,0-3.11-1.48-3.11-4.34,0-4.71,3.89-9.64,7-9.64a1,1,0,0,1,.81.22l.1-1.83a1.45,1.45,0,0,1,1.1-.4C19.82,9.76,21,11.2,21,12.3a8.36,8.36,0,0,1-.34,2.07,35.94,35.94,0,0,0-1.51,6.76c0,.63.13.72.38.72.63,0,2.26-1.19,4.27-4a1.05,1.05,0,0,1,1.16,1c0,2-5.21,7.1-7.47,7.1-1.39,0-2.27-.56-2.27-2.57a10.09,10.09,0,0,1,.1-1.23c-1,2.86-2.45,3.65-3.55,3.65M16.33,14a7.83,7.83,0,0,0-3.07,6c0,1.16.37,1.29.81,1.29a1.78,1.78,0,0,0,1.26-.79Z"/><path class="cls-3" d="M25.92,18.93a2.51,2.51,0,0,1-.82,1.73,2.69,2.69,0,0,0,2,2.32.64.64,0,0,0,.66-.72c0-1.6-1.82-5.4-1.82-7.35,0-2.64,2.13-4.46,5-4.46,1.82,0,2.89.78,2.89,2.29a2.51,2.51,0,0,1-.66,1.7,4.35,4.35,0,0,0-1.66-.38c-.66,0-1,.19-1,.75,0,1.42,1.79,4,1.79,6.32,0,3.8-3.23,5.27-6.06,5.27-2.45,0-4.37-1.66-4.37-4.77,0-1.85.51-4.9,2.05-4.9,1.1,0,2,1.41,2,2.2"/><path class="cls-3" d="M35.9,15.32c-.62-.07-1.16-.13-1.16-.82a1.87,1.87,0,0,1,2-1.88c0-.66.06-1.17.19-2.33.28-2.76,2-4.74,4.12-4.74,1.44,0,2.1.5,2.1,1.85,0,1-.38,1.73-2,5.06a22.71,22.71,0,0,0,2.7-.22,1.73,1.73,0,0,1,.6,1.32,1.94,1.94,0,0,1-1.83,2.1,12.22,12.22,0,0,1-2.29-.19,35.26,35.26,0,0,0-1.1,5.69c0,.75.19,1.1.85,1.1,1.29,0,3.46-1.51,5.59-4.52a1.2,1.2,0,0,1,1.26,1.06c0,1.86-4.81,7.48-8.42,7.48C36,26.28,34.4,25,34.4,22.13c0-.91.31-2.82,1.5-6.81"/><path class="cls-3" d="M46.18,33.13c-2.2,0-4-1.39-4-3.58,0-1.54.88-3,2.29-3a4,4,0,0,1,.82.16c.22,1.89.78,3,1.29,3s.72-.37.72-1.19A38.89,38.89,0,0,0,46,22.16c-.6-2.13-.73-2.51-.88-3.26a11.39,11.39,0,0,1-.22-2.36c0-2.76,2.2-5.24,4.55-5.24,1.2,0,1.79.44,1.79,1.38a5.45,5.45,0,0,1-1.47,3.08,18.87,18.87,0,0,0,.78,4.87c2.14-2.74,2.42-3.49,2.42-4.94a9.53,9.53,0,0,0-1-3A2.13,2.13,0,0,1,54,11.11c1.76,0,2.7,1.79,2.7,3.67s-1.48,5.41-5.37,9a27,27,0,0,1,.16,3.08c0,4.17-2.48,6.25-5.34,6.25"/><path class="cls-4" d="M70.78,12.9l.6-.06.52-.06.55,0,.62,0a7.48,7.48,0,0,1,1.5.15,3.81,3.81,0,0,1,1.33.52,2.91,2.91,0,0,1,.94,1A3.24,3.24,0,0,1,77.2,16,2.78,2.78,0,0,1,77,17.06a3.31,3.31,0,0,1-.49.84,3.22,3.22,0,0,1-.68.65,4.51,4.51,0,0,1-.73.45l-.18.09L78,23.6a8.35,8.35,0,0,1-.91,0,7,7,0,0,1-.8,0l-3.42-5v-.06l.12,0c.26-.07.55-.17.84-.28a3.56,3.56,0,0,0,.83-.47,2.8,2.8,0,0,0,.63-.7,1.82,1.82,0,0,0,.25-1A2,2,0,0,0,75,14.53a2.58,2.58,0,0,0-1.7-.52h-.47l-.48.05V23.6l-.37,0h-.76a2.38,2.38,0,0,1-.39,0Z"/><path class="cls-4" d="M82.3,12.91h5.87a4.4,4.4,0,0,1,0,.65c0,.11,0,.23,0,.35a1.65,1.65,0,0,1,0,.32H83.82v3.06H87.3a3.11,3.11,0,0,1,0,.32c0,.12,0,.23,0,.34s0,.22,0,.34a3,3,0,0,1,0,.33H83.82v3.65h4.47a4.43,4.43,0,0,1,0,.66c0,.11,0,.22,0,.34a3,3,0,0,1,0,.33h-6Z"/><path class="cls-4" d="M99.77,22a4.14,4.14,0,0,1,.41,1.23,5.74,5.74,0,0,1-1.28.39,7.72,7.72,0,0,1-1.41.12,5.56,5.56,0,0,1-2.09-.38,4.35,4.35,0,0,1-1.56-1.09,4.61,4.61,0,0,1-1-1.72,7,7,0,0,1-.35-2.27A7.27,7.27,0,0,1,92.86,16a4.78,4.78,0,0,1,1-1.76,4.11,4.11,0,0,1,1.56-1.12,5,5,0,0,1,2.06-.4,7.68,7.68,0,0,1,1.46.12,8.19,8.19,0,0,1,1.09.28,3.68,3.68,0,0,1-.13.63c-.07.2-.14.4-.23.62l-.43-.13-.45-.11a3.88,3.88,0,0,0-.53-.06,6.38,6.38,0,0,0-.66,0,3.08,3.08,0,0,0-2.52,1.1,4.91,4.91,0,0,0-.9,3.17,5.9,5.9,0,0,0,.26,1.83,3.38,3.38,0,0,0,.71,1.28,3.06,3.06,0,0,0,1.11.76,4.12,4.12,0,0,0,1.45.25,5.62,5.62,0,0,0,1.13-.11,5,5,0,0,0,1-.29"/><path class="cls-4" d="M104.81,12.91l.37,0,.38,0,.39,0,.37,0V23.6l-.36,0-.4,0-.39,0-.36,0Z"/><path class="cls-4" d="M111.61,12.9l.53-.06.64-.06.67,0,.65,0a7.08,7.08,0,0,1,1.55.17,3.27,3.27,0,0,1,1.29.56,2.89,2.89,0,0,1,.89,1.06,3.87,3.87,0,0,1,.32,1.66,3.73,3.73,0,0,1-.35,1.73,3,3,0,0,1-.92,1.11,3.59,3.59,0,0,1-1.3.59,6.65,6.65,0,0,1-1.48.17h-.5l-.47,0V23.6a6.12,6.12,0,0,1-.76,0H112a2.34,2.34,0,0,1-.38,0Zm1.52,5.51.42,0,.52,0a4,4,0,0,0,.91-.1,2.1,2.1,0,0,0,.81-.35,1.77,1.77,0,0,0,.57-.69,2.49,2.49,0,0,0,.22-1.14,2.41,2.41,0,0,0-.19-1,1.64,1.64,0,0,0-.51-.67,2,2,0,0,0-.79-.36,4.49,4.49,0,0,0-1-.1,9.29,9.29,0,0,0-1,0Z"/><path class="cls-4" d="M122.7,12.91h5.87a4.4,4.4,0,0,1,.05.65c0,.11,0,.23,0,.35a1.65,1.65,0,0,1,0,.32h-4.35v3.06h3.48a3.11,3.11,0,0,1,0,.32c0,.12,0,.23,0,.34s0,.22,0,.34a3,3,0,0,1,0,.33h-3.48v3.65h4.47a4.43,4.43,0,0,1,.05.66c0,.11,0,.22,0,.34a3,3,0,0,1,0,.33h-6Z"/><path class="cls-4" d="M133.08,22a10.13,10.13,0,0,0,1,.31,5.52,5.52,0,0,0,1.31.13,2.76,2.76,0,0,0,1.82-.5,1.65,1.65,0,0,0,.6-1.34,1.85,1.85,0,0,0-.12-.71,1.49,1.49,0,0,0-.38-.52,3.1,3.1,0,0,0-.63-.39l-.89-.39-.85-.34a6.3,6.3,0,0,1-.78-.39,2.45,2.45,0,0,1-.62-.53,2.54,2.54,0,0,1-.41-.72,2.82,2.82,0,0,1-.15-1,2.61,2.61,0,0,1,.92-2.12,4,4,0,0,1,2.59-.77,7.21,7.21,0,0,1,1.35.12,6.8,6.8,0,0,1,1.13.3,5,5,0,0,1-.32,1.23,7.52,7.52,0,0,0-.93-.27,5.51,5.51,0,0,0-1.2-.11,2.4,2.4,0,0,0-1.44.37,1.35,1.35,0,0,0-.51,1.14,1.25,1.25,0,0,0,.13.56,1.37,1.37,0,0,0,.33.43,2.47,2.47,0,0,0,.49.33,5.46,5.46,0,0,0,.6.27l.83.33a8.1,8.1,0,0,1,1.06.5,3,3,0,0,1,.78.61,2.21,2.21,0,0,1,.5.82,3.18,3.18,0,0,1,.17,1.12,3,3,0,0,1-1,2.41,4.49,4.49,0,0,1-3,.89c-.31,0-.58,0-.83,0a6.45,6.45,0,0,1-.69-.09,5.62,5.62,0,0,1-.62-.15l-.61-.2a3.21,3.21,0,0,1,.13-.66c.07-.23.15-.45.23-.67"/><path class="cls-4" d="M148.68,33.29h-86A1.33,1.33,0,0,1,61.34,32V4a1.33,1.33,0,0,1,1.32-1.32h79.89a2.79,2.79,0,0,1,1.81.78l4.91,5.2a3,3,0,0,1,.73,1.83V32a1.33,1.33,0,0,1-1.32,1.32m-86-29.7a.44.44,0,0,0-.44.44V32a.44.44,0,0,0,.44.44h86a.44.44,0,0,0,.44-.44V10.52a2.12,2.12,0,0,0-.49-1.22l-4.91-5.2a1.92,1.92,0,0,0-1.17-.51Z"/></g></g></g></svg>