<svg xmlns="http://www.w3.org/2000/svg" width="86" height="30" fill="none"><g clip-path="url(#a)"><path fill="#22CFC6" d="M24.701.352C24.5.151 24.096 0 23.82 0H.504A.505.505 0 0 0 0 .503v26.83c0 .276.227.503.504.503h29.742a.505.505 0 0 0 .504-.504V6.896c0-.277-.15-.654-.353-.856L24.701.352Z"/><path fill="#353547" d="M35.968 13.868c-.58-.05-1.059-.126-1.059-.73 0-.88.63-1.686 1.79-1.711.025-.604.05-1.057.176-2.115.252-2.491 1.79-4.303 3.73-4.303 1.311 0 1.916.453 1.916 1.686 0 .88-.353 1.56-1.84 4.58.882-.025 2.067-.125 2.445-.2.353.25.53.754.53 1.182 0 1.082-.706 1.913-1.639 1.913-.655 0-1.26-.025-2.067-.176-.756 3.12-1.008 4.706-1.008 5.134 0 .68.176 1.007.756 1.007 1.16 0 3.126-1.36 5.066-4.103.53 0 1.135.403 1.135.957 0 1.686-4.36 6.77-7.638 6.77-2.192 0-3.68-1.133-3.68-3.75 0-.78.303-2.517 1.387-6.141Z"/><path fill="#353547" d="M45.243 23.305c-1.613 0-2.823-1.333-2.823-3.926 0-4.253 3.53-8.733 6.377-8.733.404 0 .605.05.731.201l.076-1.636c.227-.251.605-.377 1.008-.377 1.94 0 3 1.309 3 2.29 0 .378-.076 1.082-.303 1.888-1.008 3.599-1.386 5.386-1.386 6.116 0 .578.126.654.353.654.58 0 2.041-1.082 3.881-3.65.605 0 1.059.378 1.059.881 0 1.838-4.714 6.418-6.78 6.418-1.26 0-2.042-.503-2.042-2.34 0-.302.025-.68.076-1.108-.933 2.618-2.244 3.322-3.227 3.322Zm4.16-10.595c-1.412.906-2.798 3.272-2.798 5.461 0 1.057.352 1.158.73 1.158.379 0 .807-.277 1.135-.705l.932-5.914Z"/><path fill="#353547" d="M58.073 17.14c0 .603-.252 1.031-.731 1.56.227 1.258 1.184 2.114 1.84 2.114.277 0 .605-.176.605-.655 0-1.46-1.664-4.882-1.664-6.644 0-2.39 1.94-4.027 4.537-4.027 1.638 0 2.621.705 2.621 2.064 0 .604-.252 1.183-.605 1.535-.529-.226-1.058-.352-1.512-.352-.605 0-.907.176-.907.68 0 1.283 1.613 3.649 1.613 5.713 0 3.448-2.924 4.781-5.495 4.781-2.218 0-3.957-1.51-3.957-4.328 0-1.687.454-4.43 1.84-4.43 1.033 0 1.815 1.284 1.815 1.988ZM67.121 13.868c-.58-.05-1.058-.126-1.058-.73 0-.88.63-1.686 1.79-1.711.025-.604.05-1.057.176-2.115.252-2.491 1.79-4.303 3.73-4.303 1.31 0 1.916.453 1.916 1.686 0 .88-.353 1.56-1.84 4.58.882-.025 2.067-.125 2.445-.2.352.25.529.754.529 1.182 0 1.082-.706 1.913-1.638 1.913-.656 0-1.26-.025-2.067-.176-.756 3.12-1.008 4.706-1.008 5.134 0 .68.176 1.007.756 1.007 1.16 0 3.125-1.36 5.066-4.103.53 0 1.134.403 1.134.957 0 1.686-4.36 6.77-7.637 6.77-2.193 0-3.68-1.133-3.68-3.75.025-.78.303-2.517 1.386-6.141Z"/><path fill="#353547" d="M76.447 30c-1.99 0-3.579-1.258-3.579-3.246 0-1.384.807-2.668 2.067-2.668.202 0 .53.076.73.151.203 1.712.707 2.693 1.16 2.693.429 0 .656-.352.656-1.082 0-.906-.63-3.498-1.26-5.763-.53-1.938-.656-2.265-.807-2.945-.151-.68-.202-1.384-.202-2.14 0-2.49 1.991-4.756 4.134-4.756 1.084 0 1.613.403 1.613 1.258 0 .856-.655 2.039-1.336 2.794 0 1.107.151 2.114.706 4.404 1.94-2.466 2.193-3.146 2.193-4.454 0-.604-.53-2.14-.882-2.718.201-.932 1.159-1.41 1.89-1.41 1.588 0 2.445 1.61 2.445 3.322 0 1.787-1.336 4.883-4.865 8.155.126.805.151 2.214.151 2.793.026 3.725-2.243 5.613-4.814 5.613Z"/><path fill="#fff" d="M15.073 9.815c.252-.05.479-.075.655-.1.177-.026.353-.026.555-.026.201 0 .403 0 .63.026.227.025.479.05.756.1l-2.596 10.621c-.151.025-.328.05-.58.1-.227.026-.479.051-.756.051s-.555-.025-.807-.05a4.293 4.293 0 0 1-.529-.076l-1.411-6.166-1.513 6.166a3.7 3.7 0 0 1-.504.076c-.252.025-.504.05-.781.05s-.53-.025-.756-.05a2.754 2.754 0 0 1-.555-.1L4.361 9.84c.277-.05.554-.075.806-.1.252-.025.48-.025.68-.025.177 0 .379 0 .58.025.202.025.429.05.681.1l1.235 6.796c.252-1.082.504-2.24.756-3.423.252-1.183.48-2.315.731-3.373.177-.025.378-.05.605-.075.227-.025.454-.025.68-.025.202 0 .404 0 .605.025.202.025.379.05.53.075l1.537 6.871 1.286-6.896ZM18.576 9.816c.227-.026.58-.076 1.059-.126s1.059-.076 1.79-.076c.529 0 1.058.05 1.587.151.53.1 1.009.277 1.462.554.429.277.782.654 1.059 1.158.277.503.403 1.132.403 1.938 0 .704-.1 1.283-.327 1.761-.202.479-.504.83-.857 1.108a3.416 3.416 0 0 1-1.21.604 5.107 5.107 0 0 1-1.387.176c-.176 0-.378 0-.58-.025-.2-.025-.327-.025-.402-.05v3.473c-.252.05-.48.075-.706.1-.202.025-.403.025-.58.025-.353 0-.781-.05-1.285-.125V9.816h-.026Zm2.571 5.033c.05.025.126.025.252.05.126.026.252.026.378.026.429 0 .782-.126 1.034-.378.277-.252.403-.63.403-1.132 0-.302-.05-.554-.126-.755a.996.996 0 0 0-.353-.479 1.717 1.717 0 0 0-.529-.251 2.545 2.545 0 0 0-.63-.076h-.202c-.075 0-.151 0-.227.025v2.97Z"/></g><defs><clipPath id="a"><path fill="#fff" d="M0 0h86v30H0z"/></clipPath></defs></svg>