<svg xmlns="http://www.w3.org/2000/svg" width="10" height="10" fill="none" xmlns:v="https://vecta.io/nano"><g clip-path="url(#A)"><path d="M5 10a5 5 0 0 0 5-5 5 5 0 0 0-1.464-3.536A5 5 0 0 0 5 0a5 5 0 0 0-3.536 1.464A5 5 0 0 0 0 5a5 5 0 0 0 5 5zM3.418 3.418c.184-.184.48-.184.662 0l.918.918.918-.918c.184-.184.48-.184.662 0a.47.47 0 0 1 0 .662l-.918.918.918.918c.184.184.184.48 0 .662a.47.47 0 0 1-.662 0l-.918-.918-.918.918c-.184.184-.48.184-.662 0a.47.47 0 0 1 0-.662l.918-.918-.918-.918c-.184-.184-.184-.48 0-.662z" fill="#667085"/></g><defs><clipPath id="A"><path fill="#fff" d="M0 0h10v10H0z"/></clipPath></defs></svg>