<svg xmlns="http://www.w3.org/2000/svg" width="20" height="20" fill="none"><g clip-path="url(#a)"><path fill="#FFE9AA" d="M13.906 2.344 13.125 0l-.781 2.344L10 3.125l2.344.781.781 2.344.781-2.344 2.344-.781-2.344-.781Zm4.219 5.781L17.5 6.25l-.625 1.875L15 8.75l1.875.625.625 1.875.625-1.875L20 8.75l-1.875-.625Zm-8.23 2.23-2.336-4.73-2.336 4.73L0 11.117l3.777 3.684L2.887 20l4.672-2.457L12.227 20l-.891-5.2 3.777-3.683-5.218-.762Z"/></g><defs><clipPath id="a"><path fill="#fff" d="M0 0h20v20H0z"/></clipPath></defs></svg>