<svg xmlns="http://www.w3.org/2000/svg" viewBox="0 0 273 253" width="273" height="253" fill="none"><g clip-path="url(#a)"><path fill="#22CFC6" d="M60.64 132.78h112.1c3.99-11.96 13.29-19.7 24.4-19.7 3.26 0 5.92.5 8.34 1.46v-82.4c0-.85-.49-2.06-1.1-2.66L176 1.08A4.35 4.35 0 0 0 173.34 0H60.64a1.6 1.6 0 0 0-1.57 1.57V131.1c0 .97.72 1.7 1.57 1.7Z"/><path fill="#353547" d="M149.06 143.78c-13.77 0-24.03 8.82-24.03 21.5 0 9.43 8.81 27.67 8.81 35.4 0 2.54-1.69 3.5-3.14 3.5-3.5 0-8.57-4.58-9.78-11.23 2.53-2.9 3.98-5.2 3.98-8.33 0-3.75-4.22-10.64-9.54-10.64-5.56 0-8.21 8.1-9.3 15.95-5.68 6.04-9.9 8.7-11.96 8.7-1.2 0-1.81-.48-1.81-3.5 0-4 1.93-13.41 7.25-32.5 1.2-4.23 1.69-7.98 1.69-10.03 0-5.32-5.56-12.2-15.83-12.2-2.17 0-4.1.6-5.31 1.93l-.48 8.82c-.73-.73-1.82-1.09-4-1.09-14.25 0-31.76 21.26-33.7 42.77-5.8 5.2-10.99 7.73-14.73 7.73-3.14 0-4.1-1.69-4.1-5.31 0-2.3 1.2-10.76 5.3-27.3 4.36.72 7.62.96 11 .96 4.95 0 8.82-4.35 8.82-10.15 0-2.3-1.09-4.95-2.9-6.4-1.93.48-8.34.96-13.05 1.08 7.98-16.07 9.79-19.7 9.79-24.28 0-6.53-3.14-8.94-10.15-8.94-10.27 0-18.48 9.54-19.81 22.83-.6 5.56-.72 7.98-.97 11.24-6.16.12-9.54 4.35-9.54 9.06 0 3.38 2.54 3.63 5.56 3.99-5.8 19.2-7.25 28.4-7.25 32.74 0 13.9 7.85 19.94 19.45 19.94 7.73 0 16.55-5.32 24.04-12.09 2.53 6.29 7.24 9.43 13.04 9.43 5.32 0 12.2-3.75 17.03-17.52a37.5 37.5 0 0 0-.48 5.92c0 9.67 4.23 12.44 10.87 12.44 5.44 0 14.5-6.16 22.1-13.4 2.42 10.38 10.52 15.82 20.18 15.82 13.65 0 29.11-7.13 29.11-25.37 0-11-8.57-23.56-8.57-30.33 0-2.78 1.69-3.62 4.83-3.62 2.42 0 5.2.6 7.97 1.8 1.81-1.8 3.14-4.94 3.14-8.2.37-7.26-4.83-11.12-13.53-11.12Zm-75.25 48.69c-1.82 2.3-3.99 3.74-6.04 3.74-2.18 0-3.99-.6-3.99-6.16 0-11.6 7.25-24.16 14.86-29l-4.83 31.42ZM273 164.68c0-9.06-4.59-17.64-13.05-17.64-3.74 0-8.94 2.54-10.02 7.61 1.81 3.14 4.7 11.36 4.7 14.5 0 7-1.32 10.63-11.59 23.68-3.02-12.2-3.74-17.52-3.74-23.44 3.62-3.99 7.13-10.27 7.13-14.86 0-4.6-2.9-6.65-8.58-6.65-11.36 0-21.87 11.97-21.87 25.26 0 3.26.25 6.52.73 9.54-9.3 11.96-18.36 17.88-24.04 17.88-3.14 0-4.1-1.69-4.1-5.31 0-2.3 1.2-10.76 5.3-27.3 4.36.72 7.62.96 11 .96 4.95 0 8.82-4.35 8.82-10.15 0-2.3-1.09-4.95-2.9-6.4-1.93.48-8.33.96-13.05 1.08 7.98-16.07 9.79-19.7 9.79-24.28 0-6.53-3.14-8.94-10.15-8.94-10.27 0-18.48 9.54-19.8 22.83-.61 5.56-.73 7.98-.98 11.24-6.16.12-9.54 4.35-9.54 9.06 0 3.38 2.54 3.63 5.56 3.99-5.8 19.2-7.25 28.4-7.25 32.74 0 13.9 7.85 19.94 19.45 19.94 12.08 0 26.94-13.17 34.9-24.17.37 1.21.73 2.66 1.22 4.35 3.38 12.08 6.64 25.86 6.64 30.69 0 3.99-1.2 5.8-3.5 5.8-2.42 0-5.2-5.32-6.16-14.38-1.09-.24-2.9-.72-3.99-.72-6.76 0-11 6.76-11 14.25 0 10.64 8.46 17.28 19.1 17.28 13.76 0 25.72-10.03 25.72-30.08 0-3.02-.12-10.64-.72-14.86 18.84-17.52 25.97-33.96 25.97-43.5Z"/><path fill="#fff" d="M130.82 46.88c1.21-.24 2.3-.36 3.14-.48.85-.13 1.7-.13 2.66-.13.97 0 1.93 0 3.02.13a48 48 0 0 1 3.5.48l-12.2 50.62c-.72.12-1.57.24-2.78.49-1.08.12-2.29.24-3.62.24a39.02 39.02 0 0 1-6.4-.6l-6.77-29.37-7.12 29.36c-.49.12-1.21.25-2.42.37-1.2.12-2.41.24-3.74.24s-2.54-.12-3.5-.24a13.16 13.16 0 0 1-2.66-.49L79.97 47c1.33-.24 2.65-.36 3.86-.48s2.3-.12 3.26-.12c.85 0 1.82 0 2.78.12.97.12 2.06.24 3.26.48l5.92 32.26c1.21-5.2 2.42-10.63 3.5-16.31 1.21-5.68 2.3-11 3.5-16.2l2.79-.35c1.08-.13 2.05-.13 3.14-.13.96 0 1.93 0 2.9.13.96.12 1.8.24 2.53.36l7.37 32.74 6.04-32.62ZM147.5 46.88c1.08-.12 2.77-.36 4.94-.6a82.2 82.2 0 0 1 8.46-.37c2.54 0 5.07.24 7.61.73 2.54.48 4.83 1.33 6.89 2.66a14.37 14.37 0 0 1 4.95 5.43c1.33 2.42 1.93 5.44 1.93 9.18 0 3.39-.48 6.17-1.57 8.34a15.03 15.03 0 0 1-3.99 5.32 14.37 14.37 0 0 1-5.8 2.78c-2.17.6-4.34.84-6.64.84-.84 0-1.8 0-2.78-.12-.96-.12-1.56-.12-1.93-.24v16.55c-1.2.24-2.3.36-3.38.49-.97.12-1.93.12-2.78.12-1.69 0-3.74-.25-6.16-.6V46.87h.24ZM159.8 70.8c.25.12.6.12 1.21.24.6 0 1.21.12 1.81.12 2.06 0 3.75-.6 4.96-1.8 1.33-1.22 1.93-3.03 1.93-5.45 0-1.45-.24-2.65-.6-3.62a5.44 5.44 0 0 0-1.7-2.3 6.18 6.18 0 0 0-2.53-1.2c-.97-.25-1.93-.37-3.02-.37h-.97c-.36 0-.72 0-1.09.12V70.8Z"/></g><defs><clipPath id="a"><path fill="#fff" d="M0 0h273v253H0z"/></clipPath></defs></svg>
