<svg width="15" height="16" viewBox="0 0 15 16" fill="none" xmlns="http://www.w3.org/2000/svg">
<path d="M7.47461 5.06201C7.5625 5.44287 7.5625 5.82373 7.50391 6.20459C7.41602 6.55615 7.24023 6.90771 7.00586 7.22998C6.5957 7.69873 6.06836 8.021 5.42383 8.16748V14.5249C5.42383 14.8472 5.30664 15.1401 5.10156 15.3745C4.86719 15.5796 4.57422 15.6968 4.25195 15.6968C3.95898 15.6968 3.66602 15.5796 3.43164 15.3745C3.22656 15.1401 3.08008 14.8472 3.08008 14.5249V8.16748C2.46484 8.05029 1.9082 7.69873 1.52734 7.22998C1.29297 6.93701 1.11719 6.58545 1.0293 6.20459C0.941406 5.82373 0.970703 5.44287 1.05859 5.06201L1.9375 1.07764C1.9668 0.960449 2.02539 0.872559 2.11328 0.784668C2.23047 0.726074 2.31836 0.696777 2.43555 0.726074C2.55273 0.726074 2.66992 0.784668 2.75781 0.872559C2.81641 0.960449 2.875 1.07764 2.875 1.16553V5.38428H3.37305L3.87109 1.04834C3.90039 0.960449 3.92969 0.872559 4.01758 0.813965C4.07617 0.755371 4.16406 0.726074 4.25195 0.726074C4.36914 0.726074 4.45703 0.755371 4.51562 0.813965C4.60352 0.872559 4.63281 0.960449 4.66211 1.04834L5.16016 5.38428H5.6582V1.16553C5.6582 1.07764 5.7168 0.960449 5.77539 0.872559C5.86328 0.784668 5.98047 0.726074 6.09766 0.726074C6.21484 0.696777 6.30273 0.726074 6.41992 0.784668C6.50781 0.872559 6.56641 0.960449 6.5957 1.07764L7.47461 5.06201ZM14.125 14.5249C14.125 14.8472 13.9785 15.1401 13.7734 15.3745C13.5391 15.5796 13.2461 15.6968 12.9531 15.6968C12.6309 15.6968 12.3379 15.5796 12.1035 15.3745C11.8984 15.1401 11.7812 14.8472 11.7812 14.5249V11.0093H11.2832C11.0195 11.0093 10.7852 10.98 10.5508 10.8921C10.3164 10.7749 10.1113 10.6577 9.93555 10.4819C9.75977 10.3062 9.64258 10.0718 9.52539 9.8667C9.4375 9.63232 9.4082 9.36865 9.4082 9.13428V5.79443C9.4375 4.71045 9.75977 3.65576 10.3457 2.77686C10.9609 1.86865 11.8105 1.19482 12.8359 0.784668C12.9531 0.726074 13.1289 0.696777 13.2754 0.726074C13.4219 0.726074 13.5684 0.784668 13.6855 0.872559C13.832 0.960449 13.9199 1.07764 14.0078 1.22412C14.0664 1.34131 14.0957 1.48779 14.125 1.63428V14.5249Z" fill="currentColor"/>
</svg>
