<svg xmlns="http://www.w3.org/2000/svg" style="display: none;">
	<defs>

	<symbol id="tasty-recipes-icon-clock" width="24" height="24" viewBox="0 0 24 24">
		<title>clock</title> 
		<desc>clock icon</desc>
		<path d="M22 5.72l-4.6-3.86-1.29 1.53 4.6 3.86L22 5.72zM7.88 3.39L6.6 1.86 2 5.71l1.29 1.53 4.59-3.85zM12.5 8H11v6l4.75 2.85.75-1.23-4-2.37V8zM12 4c-4.97 0-9 4.03-9 9s4.02 9 9 9c4.97 0 9-4.03 9-9s-4.03-9-9-9zm0 16c-3.87 0-7-3.13-7-7s3.13-7 7-7 7 3.13 7 7-3.13 7-7 7z" fill="currentColor" />
	</symbol>
	
	<symbol id="tasty-recipes-icon-cutlery" width="24" height="24" viewBox="0 0 24 24">
		<title>cutlery</title> 
		<desc>cutlery icon</desc>
		<path d="M11 9H9V2H7v7H5V2H3v7c0 2.12 1.66 3.84 3.75 3.97V22h2.5v-9.03C11.34 12.84 13 11.12 13 9V2h-2v7zm5-3v8h2.5v8H21V2c-2.76 0-5 2.24-5 4z" fill="currentColor" />
	</symbol>

	<symbol id="tasty-recipes-icon-flag" width="24" height="24" viewBox="0 0 24 24">
		<title>flag</title> 
		<desc>flag icon</desc>
		<path d="M14.4 6L14 4H5v17h2v-7h5.6l.4 2h7V6z" fill="currentColor"/>
	</symbol>
	
	<symbol id="tasty-recipes-icon-folder" width="24" height="24" viewBox="0 0 24 24">
		<title>folder</title> 
		<desc>folder icon</desc>
		<path d="M10 4H4c-1.1 0-1.99.9-1.99 2L2 18c0 1.1.9 2 2 2h16c1.1 0 2-.9 2-2V8c0-1.1-.9-2-2-2h-8l-2-2z" fill="currentColor" />
	</symbol>
	
	<symbol id="tasty-recipes-icon-instagram" viewBox="0 0 448 512">
		<title>instagram</title> 
		<desc>instagram icon</desc>
		<path fill="currentColor" d="M224.1 141c-63.6 0-114.9 51.3-114.9 114.9s51.3 114.9 114.9 114.9S339 319.5 339 255.9 287.7 141 224.1 141zm0 189.6c-41.1 0-74.7-33.5-74.7-74.7s33.5-74.7 74.7-74.7 74.7 33.5 74.7 74.7-33.6 74.7-74.7 74.7zm146.4-194.3c0 14.9-12 26.8-26.8 26.8-14.9 0-26.8-12-26.8-26.8s12-26.8 26.8-26.8 26.8 12 26.8 26.8zm76.1 27.2c-1.7-35.9-9.9-67.7-36.2-93.9-26.2-26.2-58-34.4-93.9-36.2-37-2.1-147.9-2.1-184.9 0-35.8 1.7-67.6 9.9-93.9 36.1s-34.4 58-36.2 93.9c-2.1 37-2.1 147.9 0 184.9 1.7 35.9 9.9 67.7 36.2 93.9s58 34.4 93.9 36.2c37 2.1 147.9 2.1 184.9 0 35.9-1.7 67.7-9.9 93.9-36.2 26.2-26.2 34.4-58 36.2-93.9 2.1-37 2.1-147.8 0-184.8zM398.8 388c-7.8 19.6-22.9 34.7-42.6 42.6-29.5 11.7-99.5 9-132.1 9s-102.7 2.6-132.1-9c-19.6-7.8-34.7-22.9-42.6-42.6-11.7-29.5-9-99.5-9-132.1s-2.6-102.7 9-132.1c7.8-19.6 22.9-34.7 42.6-42.6 29.5-11.7 99.5-9 132.1-9s102.7-2.6 132.1 9c19.6 7.8 34.7 22.9 42.6 42.6 11.7 29.5 9 99.5 9 132.1s2.7 102.7-9 132.1z"></path>
	</symbol>
	
	<symbol id="tasty-recipes-icon-pinterest" viewBox="0 0 384 512">
		<title>pinterest</title> 
		<desc>pinterest icon</desc>
		<path fill="currentColor" d="M204 6.5C101.4 6.5 0 74.9 0 185.6 0 256 39.6 296 63.6 296c9.9 0 15.6-27.6 15.6-35.4 0-9.3-23.7-29.1-23.7-67.8 0-80.4 61.2-137.4 140.4-137.4 68.1 0 118.5 38.7 118.5 109.8 0 53.1-21.3 152.7-90.3 152.7-24.9 0-46.2-18-46.2-43.8 0-37.8 26.4-74.4 26.4-113.4 0-66.2-93.9-54.2-93.9 25.8 0 16.8 2.1 35.4 9.6 50.7-13.8 59.4-42 147.9-42 209.1 0 18.9 2.7 37.5 4.5 56.4 3.4 3.8 1.7 3.4 6.9 1.5 50.4-69 48.6-82.5 71.4-172.8 12.3 23.4 44.1 36 69.3 36 106.2 0 153.9-103.5 153.9-196.8C384 71.3 298.2 6.5 204 6.5z" />
	</symbol>

	<symbol id="tasty-recipes-icon-facebook" viewBox="0 0 448 512">
		<title>facebook</title> 
		<desc>facebook icon</desc>
		<path fill="currentColor" d="M400 32H48A48 48 0 0 0 0 80v352a48 48 0 0 0 48 48h137.25V327.69h-63V256h63v-54.64c0-62.15 37-96.48 93.67-96.48 27.14 0 55.52 4.84 55.52 4.84v61h-31.27c-30.81 0-40.42 19.12-40.42 38.73V256h68.78l-11 71.69h-57.78V480H400a48 48 0 0 0 48-48V80a48 48 0 0 0-48-48z" />
	</symbol>
	
	<symbol id="tasty-recipes-icon-print" width="24" height="24" viewBox="0 0 24 24">
		<title>print</title> 
		<desc>print icon</desc>
		<path d="M19 8H5c-1.66 0-3 1.34-3 3v6h4v4h12v-4h4v-6c0-1.66-1.34-3-3-3zm-3 11H8v-5h8v5zm3-7c-.55 0-1-.45-1-1s.45-1 1-1 1 .45 1 1-.45 1-1 1zm-1-9H6v4h12V3z" fill="currentColor" />
	</symbol>
	
	<symbol id="tasty-recipes-icon-squares" width="24" height="24" viewBox="0 0 24 24">
		<title>squares</title> 
		<desc>squares icon</desc>
		<path d="M22 9V7h-2V5c0-1.1-.9-2-2-2H4c-1.1 0-2 .9-2 2v14c0 1.1.9 2 2 2h14c1.1 0 2-.9 2-2v-2h2v-2h-2v-2h2v-2h-2V9h2zm-4 10H4V5h14v14zM6 13h5v4H6zm6-6h4v3h-4zM6 7h5v5H6zm6 4h4v6h-4z" fill="currentColor" />
	</symbol>
	
	<symbol id="tasty-recipes-icon-heart-regular" viewBox="0 0 512 512">
		<title>heart</title> 
		<desc>heart icon</desc>
		<path fill="currentColor" d="M458.4 64.3C400.6 15.7 311.3 23 256 79.3 200.7 23 111.4 15.6 53.6 64.3-21.6 127.6-10.6 230.8 43 285.5l175.4 178.7c10 10.2 23.4 15.9 37.6 15.9 14.3 0 27.6-5.6 37.6-15.8L469 285.6c53.5-54.7 64.7-157.9-10.6-221.3zm-23.6 187.5L259.4 430.5c-2.4 2.4-4.4 2.4-6.8 0L77.2 251.8c-36.5-37.2-43.9-107.6 7.3-150.7 38.9-32.7 98.9-27.8 136.5 10.5l35 35.7 35-35.7c37.8-38.5 97.8-43.2 136.5-10.6 51.1 43.1 43.5 113.9 7.3 150.8z"></path>
	</symbol>

	<symbol id="tasty-recipes-icon-heart-solid" viewBox="0 0 512 512">
		<title>heart solid</title> 
		<desc>heart solid icon</desc>
		<path fill="currentColor" d="M462.3 62.6C407.5 15.9 326 24.3 275.7 76.2L256 96.5l-19.7-20.3C186.1 24.3 104.5 15.9 49.7 62.6c-62.8 53.6-66.1 149.8-9.9 207.9l193.5 199.8c12.5 12.9 32.8 12.9 45.3 0l193.5-199.8c56.3-58.1 53-154.3-9.8-207.9z"></path>
	</symbol>

	</defs>
</svg>
