<svg xmlns="http://www.w3.org/2000/svg" width="16" height="15" fill="none"><path fill="#fff" fill-rule="evenodd" d="M12.852.19a.735.735 0 0 0-.459-.19H.263A.268.268 0 0 0 0 .271V14.73c0 .149.118.271.262.271h15.476A.268.268 0 0 0 16 14.73V3.716a.75.75 0 0 0-.184-.461L12.852.19Zm-5.01 5.1c.1-.021.193-.034.272-.045l.07-.01c.091-.014.183-.014.288-.014.105 0 .21 0 .328.014l.04.004c.107.013.225.026.353.05l-1.35 5.724-.059.01c-.066.01-.143.023-.243.044-.118.013-.25.027-.393.027a4.09 4.09 0 0 1-.42-.027 2.155 2.155 0 0 1-.276-.04l-.734-3.324-.787 3.323a1.859 1.859 0 0 1-.262.04c-.131.014-.262.028-.407.028-.144 0-.275-.014-.393-.027a1.385 1.385 0 0 1-.289-.054l-1.31-5.71c.131-.025.262-.038.384-.05l.036-.004c.13-.014.249-.014.354-.014.091 0 .196 0 .301.014l.04.005c.094.012.2.025.314.049l.643 3.662a104.719 104.719 0 0 0 .495-2.342c.093-.458.182-.9.279-1.32a7.78 7.78 0 0 1 .314-.04c.119-.014.237-.014.355-.014.105 0 .21 0 .314.013.105.014.197.027.276.04l.8 3.703.669-3.716Zm1.981-.02a11.21 11.21 0 0 1-.157.02h.013v5.736c.262.041.485.068.668.068.092 0 .197 0 .302-.013.118-.014.236-.028.367-.055V9.155c.025.008.06.011.107.016l.103.01c.105.014.21.014.302.014.25 0 .485-.027.721-.095a1.75 1.75 0 0 0 .63-.325c.183-.15.34-.34.446-.597.118-.257.17-.57.17-.95 0-.433-.065-.772-.21-1.043a1.676 1.676 0 0 0-.55-.624 2.185 2.185 0 0 0-.761-.299 4.266 4.266 0 0 0-.826-.081c-.38 0-.682.013-.932.04a21.01 21.01 0 0 0-.393.049Zm1.247 2.748a.225.225 0 0 1-.067-.016v-1.6c.04-.014.079-.014.118-.014h.105c.118 0 .223.014.328.04a.88.88 0 0 1 .275.136c.08.055.145.15.184.258.04.108.066.244.066.407 0 .271-.066.475-.21.61-.131.136-.315.204-.538.204-.065 0-.131 0-.197-.014a1.134 1.134 0 0 0-.064-.011Z" clip-rule="evenodd"/></svg>