<svg width="14" height="15" viewBox="0 0 14 15" fill="none" xmlns="http://www.w3.org/2000/svg">
<path d="M1.75 14.333C1.75 14.5791 1.53125 14.7705 1.3125 14.7705H0.4375C0.191406 14.7705 0 14.5791 0 14.333V1.64551C0 1.18066 0.382812 0.770508 0.875 0.770508C1.33984 0.770508 1.75 1.18066 1.75 1.64551V14.333ZM13.0156 0.770508C12.8242 0.770508 12.6602 0.825195 12.4688 0.907227C11.2383 1.48145 10.3086 1.67285 9.54297 1.67285C7.90234 1.67285 6.94531 0.797852 5.05859 0.797852C4.375 0.797852 3.58203 0.907227 2.625 1.20801V10.8057C3.5 10.5322 4.23828 10.4229 4.92188 10.4229C6.94531 10.4229 8.33984 11.2705 10.3633 11.2705C11.2383 11.2705 12.2227 11.1064 13.3984 10.6416C13.7812 10.5049 14 10.2041 14 9.87598V1.61816C14 1.09863 13.5352 0.770508 13.0156 0.770508Z" fill="currentColor"/>
</svg>
