<svg width="13" height="16" viewBox="0 0 13 16" fill="none" xmlns="http://www.w3.org/2000/svg">
<path d="M7.96875 0.875C8.4668 0.875 8.90625 1.31445 8.90625 1.8125C8.90625 2.33984 8.4668 2.75 7.96875 2.75H7.5V3.77539C8.58398 3.95117 9.58008 4.39062 10.4004 5.06445L11.0449 4.44922C11.3965 4.06836 12.0117 4.06836 12.3633 4.44922C12.7441 4.80078 12.7441 5.41602 12.3633 5.76758L11.6602 6.4707C12.2754 7.4375 12.6562 8.58008 12.6562 9.78125C12.6562 13.1504 9.90234 15.875 6.5625 15.875C3.19336 15.875 0.46875 13.1504 0.46875 9.78125C0.46875 6.73438 2.69531 4.21484 5.625 3.77539V2.75H5.15625C4.62891 2.75 4.21875 2.33984 4.21875 1.8125C4.21875 1.31445 4.62891 0.875 5.15625 0.875H7.96875ZM7.26562 6.5C7.26562 6.11914 6.94336 5.79688 6.5625 5.79688C6.15234 5.79688 5.85938 6.11914 5.85938 6.5V10.25C5.85938 10.6602 6.15234 10.9531 6.5625 10.9531C6.94336 10.9531 7.26562 10.6602 7.26562 10.25V6.5Z" fill="currentColor"/>
</svg>
