<svg width="14" height="13" viewBox="0 0 14 13" fill="none" xmlns="http://www.w3.org/2000/svg">
<path d="M0 4.99316V4.85645C0 2.94238 1.36719 1.30176 3.25391 1.00098C4.48438 0.782227 5.76953 1.19238 6.67188 2.09473L7 2.39551L7.30078 2.09473C8.20312 1.19238 9.48828 0.782227 10.7188 1.00098C12.6055 1.30176 14 2.94238 14 4.85645V4.99316C14 6.1416 13.5078 7.23535 12.6875 8.00098L7.73828 12.6221C7.54688 12.8135 7.27344 12.8955 7 12.8955C6.69922 12.8955 6.42578 12.8135 6.23438 12.6221L1.28516 8.00098C0.464844 7.23535 0 6.1416 0 4.99316Z" fill="currentColor"/>
</svg>
