<svg width="16" height="15" viewBox="0 0 16 15" fill="none" xmlns="http://www.w3.org/2000/svg">
<path d="M13.2773 7.41504C12.9219 7.8252 12.457 8.15332 11.9375 8.37207C11.4453 8.59082 10.8711 8.67285 10.3242 8.61816C9.91406 8.56348 9.50391 8.39941 9.17578 8.15332L2.85938 14.4697C2.64062 14.6611 2.36719 14.7705 2.09375 14.7705C1.79297 14.7705 1.51953 14.6611 1.30078 14.4697C1.10938 14.251 0.972656 13.9775 0.972656 13.6768C0.972656 13.4033 1.10938 13.1299 1.30078 12.9111L7.64453 6.59473C7.37109 6.2666 7.20703 5.85645 7.15234 5.44629C7.09766 4.89941 7.17969 4.3252 7.39844 3.80566C7.61719 3.31348 7.94531 2.84863 8.35547 2.49316C10.2148 0.633789 12.8398 0.223633 14.1797 1.59082C15.5469 2.93066 15.1367 5.55566 13.2773 7.41504Z" fill="currentColor"/>
</svg>
