<svg xmlns="http://www.w3.org/2000/svg" viewBox="0 -102.5 512 512" fill="#353547"><path d="M78.15-30.54C29.94 16.08 0 81.34 0 153.6c0 141.38 114.61 256 256 256 72.26 0 137.52-29.94 184.07-78.08l.07-.07A255.1 255.1 0 0 0 512 153.6c0-141.38-114.62-256-256-256A255.14 255.14 0 0 0 78.08-30.47l.07-.07zm325.9 36.1a204.27 204.27 0 0 1 60.01 144.9c0 113.16-91.74 204.9-204.91 204.9a204.27 204.27 0 0 1-144.9-60.01 204.27 204.27 0 0 1-60.02-144.9c0-113.17 91.75-204.91 204.92-204.91a204.27 204.27 0 0 1 144.9 60.02zm-170.5 119.3v51.2h51.2V22.45h-51.2v102.4zm0 153.6h51.2v-51.2h-51.2v51.2z"/></svg>
